<?xml version="1.0" encoding="UTF-8"?>
<svg id="icons" xmlns="http://www.w3.org/2000/svg" viewBox="0 0 454.48 497.75">
  <path d="M352.94,497.75c-2.98,0-6-.24-9.03-.75l-178.54-29.76c-28.29-4.72-47.93-30.46-45.59-58.54h-63.42c-31.08,0-56.36-25.28-56.36-56.36V56.36C0,25.28,25.28,0,56.36,0h188.35c31.08,0,56.36,25.28,56.36,56.36v34.05l107.62,17.94s0,0,0,0c14.43,2.41,27.07,10.3,35.57,22.2,8.51,11.91,11.87,26.42,9.45,40.86l-46.76,280.55c-4.46,26.76-27.73,45.79-54.02,45.79ZM154.25,395.33l-2.35,14.12c-2.06,12.39,6.34,24.16,18.73,26.23l178.53,29.76c12.38,2.06,24.16-6.34,26.23-18.74l46.76-280.56c1-6.01-.39-12.04-3.93-16.99-3.54-4.95-8.79-8.23-14.8-9.24l-178.54-29.76c-12.4-2.06-24.16,6.34-26.23,18.74l-44.41,266.43ZM56.36,32c-13.43,0-24.36,10.93-24.36,24.36v295.98c0,13.43,10.93,24.36,24.36,24.36h68.56l42.18-253.07c4.98-29.8,33.26-50,63.05-45.04l38.92,6.49v-28.71c0-13.43-10.93-24.36-24.36-24.36H56.36Z"/>
</svg>