<?xml version="1.0" encoding="UTF-8"?>
<svg id="icons" xmlns="http://www.w3.org/2000/svg" viewBox="0 0 390.48 433.75">
  <path d="M386.23,117.15c3.54,4.95,4.93,10.98,3.93,16.99l-46.76,280.56c-2.07,12.4-13.85,20.8-26.23,18.74l-178.53-29.76c-12.4-2.07-20.8-13.84-18.74-26.23l2.35-14.12,44.41-266.43c2.07-12.4,13.83-20.81,26.23-18.75l178.54,29.76c6,1.01,11.26,4.29,14.8,9.24ZM237.07,24.36v28.71l-38.92-6.48c-29.79-4.96-58.07,15.24-63.05,45.04l-42.18,253.07H24.36c-13.43,0-24.36-10.93-24.36-24.36V24.36C0,10.93,10.93,0,24.36,0h188.35c13.43,0,24.36,10.93,24.36,24.36Z"/>
</svg>