<?xml version="1.0" encoding="UTF-8"?>
<svg id="Layer_1" xmlns="http://www.w3.org/2000/svg" version="1.1" viewBox="0 0 479.9 512">
  <!-- Generator: Adobe Illustrator 29.0.1, SVG Export Plug-In . SVG Version: 2.1.0 Build 192)  -->
  <path d="M392,290.7c-2-3.8-51.1-93-143.6-108.8l-45.2-22.4v-7.5c21.2-7.5,32.4-30.8,24.9-52.1-7.5-21.2-30.8-32.4-52.1-24.9-16.3,5.8-27.2,21.2-27.2,38.5,0,7.5,6.1,13.6,13.6,13.6s13.6-6.1,13.6-13.6,6.1-13.6,13.6-13.6,13.6,6.1,13.6,13.6-6.1,13.6-13.6,13.6-13.6,6.1-13.6,13.6v18.8l-45.2,22.6C38.2,197.7-10.8,286.9-12.8,290.7c-2.7,4.9-2,11,1.6,15.3l40.8,47.6c2.6,3,6.4,4.8,10.3,4.8h0c3.8,0,7.5-1.6,10.1-4.5,0,0,5.8-6.4,17.1-17.7v158.2c0,7.5,6.1,13.6,13.6,13.6h217.6c7.5,0,13.6-6.1,13.6-13.6v-158.2c11.3,11.3,17,17.6,17.1,17.7,2.6,2.8,6.2,4.5,10.1,4.5h0c3.9,0,7.6-1.8,10.1-4.8l40.8-47.6c3.7-4.2,4.5-10.3,1.8-15.3h0ZM189.6,183.2l40,20c-4.4,22.1-25.9,36.5-48,32.1-16.2-3.2-28.9-15.9-32.1-32.1l40.1-20ZM338.7,324.3c-6.8-6.8-17.1-17.3-30.9-30.4-5.5-5.1-14.1-4.9-19.2.6-2.4,2.5-3.7,5.9-3.7,9.4h0v176.8H94.3v-176.8h0c0-7.5-6.1-13.6-13.7-13.6-3.4,0-6.8,1.3-9.3,3.7-13.9,13.1-24.1,23.5-30.9,30.3l-24.6-28.6c12.6-19.4,49.7-69.2,107.7-84.3,9.2,36.4,46.2,58.5,82.6,49.3,24.2-6.1,43.1-25,49.3-49.3,57.8,15.1,95.2,65,107.7,84.3l-24.6,28.6h0Z"/>
</svg>