<?xml version="1.0" encoding="UTF-8"?>
<svg id="icons" xmlns="http://www.w3.org/2000/svg" viewBox="0 0 454.48 497.75">
  <defs>
    <style>
      .cls-1 {
        stroke: #fff;
        stroke-linejoin: round;
        stroke-width: 32px;
      }
    </style>
  </defs>
  <path class="cls-1" d="M285.07,56.36v47.6l-57.55-9.59c-21.13-3.52-41.11,10.76-44.64,31.89l-44.41,266.44H56.36c-22.29,0-40.36-18.07-40.36-40.36V56.36c0-22.29,18.07-40.36,40.36-40.36h188.35c22.29,0,40.36,18.07,40.36,40.36ZM406.06,124.13l-120.99-20.17-57.55-9.59c-21.13-3.52-41.11,10.76-44.64,31.89l-44.41,266.44-2.35,14.12c-3.52,21.13,10.75,41.11,31.88,44.64l178.54,29.76c21.13,3.52,41.12-10.76,44.64-31.89l46.76-280.56c3.53-21.13-10.75-41.11-31.88-44.64Z"/>
</svg>