<?xml version="1.0" encoding="UTF-8"?>
<svg id="Layer_1" data-name="Layer 1" xmlns="http://www.w3.org/2000/svg" viewBox="0 0 505.97 457.56">
  <path d="M442.64,76.06l-10.68,56.54-5.64.64-21.73-56.5c-4.23-10.98-16.61-16.5-27.64-12.28-5.62,2.16-10.09,6.63-12.28,12.29l-24.35,63.3-63.35,24.38c-10.99,4.24-16.48,16.64-12.24,27.66,2.19,5.65,6.68,10.12,12.26,12.25l63.33,24.36,24.37,63.36c.86,2.21,2.05,4.22,3.52,5.98l2.36,84.05h-183.97l6.18-16.07,77.14-29.67c11.53-4.45,17.31-17.42,12.9-28.95-2.25-5.92-6.94-10.64-12.91-12.96l-77.13-29.67-29.67-77.12c-2.15-5.6-6.36-10.02-11.83-12.46-2.46-1.09-5.03-1.73-7.64-1.9-.49-18.77-14.98-34.78-33.85-36.92l-33.35-3.77-10.59-56.05,115.13-40.29c11.29,23.19,32.26,40.79,57.67,47.55,23.18,6.16,47.37,2.94,68.13-9.09,15.54-9.01,27.76-22.15,35.5-37.92l100.36,39.26ZM504.53,176.66c-2.17-5.6-6.62-10.06-12.26-12.24l-31.61-12.16c.23-.69.41-1.39.55-2.11l15.33-81.18c1.43-7.56-2.73-15.07-9.89-17.87L338.88,1.1c-8.22-3.22-17.5.84-20.72,9.07-.27.67-.48,1.34-.65,2.02-4.01,14.78-13.51,27.15-26.78,34.84-13.36,7.74-28.93,9.82-43.85,5.85-19.88-5.29-35.54-20.88-40.92-40.73-.12-.48-.26-.96-.43-1.43-2.92-8.34-12.05-12.74-20.39-9.82L42.29,50.9c-7.47,2.61-11.91,10.29-10.44,18.07l15.33,81.18c1.31,6.9,6.95,12.14,13.93,12.93l45.08,5.09c3.16.35,5.56,3.12,5.46,6.32l-1.15,40.99-18.97,49.29-77.15,29.68c-11.54,4.45-17.31,17.46-12.89,28.98,2.28,5.94,6.99,10.66,12.91,12.92l77.13,29.67,29.67,77.13c2.15,5.61,6.36,10.03,11.85,12.47,2.92,1.29,6.01,1.94,9.1,1.94,2.72,0,5.44-.5,8.04-1.51,5.95-2.27,10.66-6.98,12.92-12.89l11.18-29.07h212.74c4.32,0,8.46-1.75,11.47-4.85,3.02-3.1,4.65-7.28,4.52-11.6l-2.77-98.7c1.85-1.99,3.34-4.34,4.34-6.93l24.35-63.31,63.35-24.37c10.99-4.25,16.49-16.65,12.25-27.64,0,0,0-.02-.01-.03ZM400.77,212.8l-16.14,41.97-16.15-42.01c-2.2-5.66-6.71-10.13-12.28-12.24l-41.96-16.14,41.87-16.11c5.66-2.14,10.17-6.62,12.38-12.32l16.14-41.97,16.11,41.9c.13.34.27.67.42,1.01.14.34.3.67.47,1,2.41,4.8,6.46,8.46,11.43,10.34l41.97,16.15-41.94,16.13c-5.64,2.15-10.12,6.62-12.32,12.29ZM426.32,133.24l-21.73-56.5c-4.23-10.98-16.61-16.5-27.64-12.28-5.62,2.16-10.09,6.63-12.28,12.29l-24.35,63.3-63.35,24.38c-10.99,4.24-16.48,16.64-12.24,27.66,2.19,5.65,6.68,10.12,12.26,12.25l63.33,24.36,24.37,63.36c.86,2.21,2.05,4.22,3.52,5.98l2.36,84.05h-183.97l6.18-16.07,77.14-29.67c11.53-4.45,17.31-17.42,12.9-28.95-2.25-5.92-6.94-10.64-12.91-12.96l-77.13-29.67-29.67-77.12c-2.15-5.6-6.36-10.02-11.83-12.46-2.46-1.09-5.03-1.73-7.64-1.9-.49-18.77-14.98-34.78-33.85-36.92l-33.35-3.77-10.59-56.05,115.13-40.29c11.29,23.19,32.26,40.79,57.67,47.55,23.18,6.16,47.37,2.94,68.13-9.09,15.54-9.01,27.76-22.15,35.5-37.92l100.36,39.26-10.68,56.54-5.64.64ZM164.43,350.58l-15.93,41.42c-.09.23-.18.46-.26.69l-6.08,15.81-22.26-57.86c-2.26-5.93-6.95-10.65-12.92-12.96l-57.92-22.28,57.9-22.27c5.94-2.28,10.65-6.99,12.91-12.9l21.34-55.48c.1-.22.18-.45.27-.68l.67-1.76,22.27,57.88c2.28,5.95,6.99,10.66,12.9,12.93l57.93,22.28-57.97,22.29c-5.93,2.31-10.62,7.02-12.85,12.89Z"/>
</svg>