<?xml version="1.0" encoding="UTF-8"?>
<svg id="Layer_1" data-name="Layer 1" xmlns="http://www.w3.org/2000/svg" viewBox="0 0 505.91 457.51">
  <path d="M142.13,457.51c-3.09,0-6.18-.65-9.1-1.94-5.49-2.43-9.7-6.86-11.85-12.47l-29.67-77.12-77.12-29.66c-5.92-2.26-10.63-6.98-12.9-12.92-4.43-11.52,1.35-24.54,12.89-28.98l77.14-29.67,18.96-49.29,1.15-40.98c.1-3.2-2.3-5.96-5.45-6.32l-45.08-5.09c-6.98-.79-12.62-6.03-13.93-12.93l-15.33-81.17c-1.47-7.78,2.97-15.46,10.44-18.07L185.12.9c8.34-2.92,17.47,1.48,20.39,9.82.17.48.31.97.43,1.46,5.39,19.83,21.04,35.42,40.91,40.7,14.92,3.97,30.49,1.89,43.84-5.85,13.27-7.69,22.77-20.05,26.78-34.84.17-.68.38-1.35.64-2.02,3.22-8.23,12.5-12.29,20.73-9.07l127.75,49.99c7.17,2.8,11.32,10.31,9.89,17.87l-15.33,81.17c-.14.72-.32,1.43-.55,2.11l31.6,12.16c5.64,2.18,10.1,6.64,12.27,12.25,0,0,0,.02.01.03,4.23,10.99-1.27,23.39-12.26,27.63l-63.34,24.37-24.34,63.3c-1,2.6-2.49,4.94-4.35,6.93l2.78,98.69c.12,4.32-1.51,8.5-4.52,11.6s-7.15,4.85-11.47,4.85h-212.71l-11.18,29.07c-2.26,5.91-6.97,10.62-12.92,12.9-2.6,1-5.33,1.5-8.04,1.5ZM133.22,431.61s0,.02-.01.03v-.03ZM49.05,315.36l57.92,22.28c5.97,2.32,10.66,7.04,12.91,12.96l22.26,57.85,6.08-15.81c.08-.23.17-.46.26-.69l15.93-41.42c2.23-5.86,6.92-10.58,12.84-12.88l57.96-22.29-57.92-22.28c-5.91-2.26-10.63-6.97-12.9-12.92l-22.26-57.88-.68,1.76c-.08.23-.17.46-.26.69l-21.34,55.47c-2.26,5.92-6.98,10.63-12.92,12.9l-57.88,22.26ZM186.58,382.04h183.95l-2.37-84.03c-1.46-1.76-2.66-3.77-3.52-5.98l-24.37-63.35-63.32-24.36c-5.59-2.12-10.08-6.6-12.27-12.25-4.24-11.02,1.25-23.42,12.25-27.66l63.34-24.37,24.34-63.3c2.2-5.67,6.67-10.13,12.29-12.29,11.02-4.22,23.41,1.3,27.64,12.28l21.73,56.49,5.63-.64,10.68-56.53-100.34-39.26c-7.74,15.77-19.96,28.91-35.5,37.92-20.75,12.03-44.94,15.26-68.12,9.09-25.41-6.76-46.37-24.35-57.67-47.54l-115.11,40.29,10.58,56.04,33.35,3.77c18.87,2.14,33.35,18.15,33.84,36.92,2.61.17,5.18.81,7.64,1.9,5.48,2.44,9.68,6.86,11.83,12.46l29.66,77.11,77.12,29.67c5.96,2.31,10.64,7.01,12.9,12.92,2.15,5.59,1.99,11.68-.44,17.15-2.43,5.47-6.85,9.68-12.44,11.83l-77.13,29.67-6.18,16.06ZM89.99,362.03s.02.05.03.07l-.03-.07ZM194.3,361.97l-.03.07s.02-.05.03-.07ZM25.85,306.44h.03s-.02,0-.03,0ZM89.99,268.7s0,.02-.01.04v-.04ZM194.26,268.67v.04s0-.02,0-.04ZM95.48,263.22s-.02,0-.04.01h.04ZM188.76,263.21l.04.02s-.03-.01-.04-.02ZM314.2,184.36l41.96,16.14c5.57,2.11,10.08,6.58,12.28,12.25l16.15,41.99,16.14-41.96c2.21-5.7,6.71-10.17,12.38-12.31l41.87-16.11-41.96-16.14c-4.99-1.89-9.06-5.58-11.46-10.4-.16-.31-.31-.62-.44-.94-.15-.34-.29-.67-.42-1.01l-16.11-41.88-16.14,41.96c-2.21,5.7-6.71,10.17-12.38,12.31l-41.87,16.11ZM344.64,230.36s.08.03.12.05l-.12-.05ZM424.62,230.32l-.12.04s.08-.03.12-.04ZM480.69,194.25h0,0ZM288.39,174.43l.08.03s-.05-.02-.08-.03ZM344.67,138.35s-.08.03-.12.04l.12-.04Z"/>
</svg>